<?xml version="1.0" encoding="utf-8"?>
<!-- Generator: Adobe Illustrator 26.0.0, SVG Export Plug-In . SVG Version: 6.00 Build 0)  -->
<svg version="1.1" id="Layer_1" xmlns="http://www.w3.org/2000/svg" xmlns:xlink="http://www.w3.org/1999/xlink" x="0px" y="0px"
	 viewBox="0 0 742.98 288" style="enable-background:new 0 0 742.98 288;" xml:space="preserve">
<style type="text/css">
	.st0{opacity:0.4;fill:#339DCB;}
	.st1{fill:#050706;}
	.st2{fill:#262323;}
</style>
<g>
	<circle class="st0" cx="548.24" cy="146.34" r="134.21"/>
	<path class="st1" d="M13.74,88.95c9.35,0.24,18.7,0.41,28.05,0.75c2.38,0.09,4.76,0.63,7.1,1.11c18.81,3.9,29.17,29.5,17.78,45.84
		c-1.22,1.75-2.71,3.31-4.25,5.16c0.59,0.4,1.21,0.77,1.84,1.11c11.79,5.44,18.07,17.2,17.4,30.12
		c-0.72,14.07-12.98,29.06-30.04,29.83c-12.62,0.57-25.27,0.54-37.91,0.77L13.74,88.95z M31.3,152.81v34.43
		c4.42,0,8.69,0.23,12.92-0.08c3.39-0.19,6.75-0.81,9.98-1.84c6.6-2.23,10.46-8.12,10.46-15.11c0-7.14-4.02-12.9-10.73-15.35
		C46.63,152.19,39.08,152.8,31.3,152.81z M31.13,138.07c3.51,0,6.57,0.32,9.53-0.06c9.87-1.28,14.41-6.67,14.35-16.62
		c0-0.88-0.09-1.77-0.17-2.65c-0.56-6.38-4.16-10.92-10.22-12.71c-4.28-1.27-8.68-1.23-13.27-0.93c-0.1,0.66-0.18,1.33-0.21,2.01
		C31.13,117.33,31.13,127.56,31.13,138.07z"/>
	<path class="st2" d="M414.24,146.39c-0.54-73.78,60.31-133.96,133.68-134.13c72.73-0.16,134.27,59.1,134.31,133.98
		c0.04,75.12-61.72,134.21-134.15,134.15C474.91,280.32,413.79,220.34,414.24,146.39z M676.64,146.34
		c0.77-67.12-53.7-128.54-128.46-128.6c-71.71-0.06-128.62,57.53-128.61,128.58c0,70.89,56.65,128.63,128.59,128.6
		C622.99,274.89,677.4,213.41,676.64,146.34z"/>
	<path class="st1" d="M164.9,112.29l62.24,65.09V118h12.78v90.55c-20.92-21.55-41.11-42.94-62.29-63.83v58.71h-12.76L164.9,112.29z"
		/>
	<path class="st1" d="M393.73,151.08v-33h12.79v85.38H393.9v-39.67h-36.95v39.59h-12.88v-85.29h12.7v32.99H393.73z"/>
	<path class="st1" d="M100.34,117.91h46.78v11.97h-33.84v20.57h32.89v12.22H113.3v28.63h33.83v12.12h-46.78L100.34,117.91z"/>
	<path class="st1" d="M325.13,122.59v14.97c-1.66-1.18-2.89-2.13-4.19-2.97c-11.35-7.31-23.13-8.85-35-1.62
		c-10.19,6.19-15.2,15.82-15.28,27.61c-0.08,12.6,5.29,22.59,16.58,28.66c10.23,5.5,20.64,5.2,30.74-0.69
		c2.28-1.33,4.38-2.96,6.91-4.69v14.81c-12.56,8.73-38.21,11.01-55.29-7.23c-15.6-16.67-16.26-41.43-1.57-59.21
		C282.03,115.29,306.9,111.01,325.13,122.59z"/>
	<path class="st1" d="M104.88,276.42c-5.27-7.25-10.2-14.79-15.54-22.02l-1.04,0.43v21.53h-7.99v-53.15
		c6.02,0.14,11.81-0.44,17.56,0.84c7.26,1.62,11.49,6.38,12.13,13.64c0.6,6.73-3,12.6-9.43,15.38l-2.17,0.92l16.24,22.42
		L104.88,276.42z M88.34,247.69c4.94-0.09,9.82,0.36,12.71-4.36c1.74-2.85,1.81-6.24-0.23-8.95c-3.15-4.2-7.82-3.61-12.48-3.41
		V247.69z"/>
	<path class="st1" d="M407.19,276.44h-7.21c-0.18-0.85-0.35-1.67-0.53-2.5c-0.23,0-0.53-0.1-0.68,0c-5.34,4.1-11.12,4.84-17.01,1.55
		c-6.44-3.6-8.51-9.7-8.4-16.69c0-4.22,1.51-8.3,4.25-11.5c5.03-5.87,13.01-7,19.47-2.74l2.52,1.67v-27.81h7.58L407.19,276.44z
		 M380.86,259.84c0.77,2.22,1.16,4.66,2.37,6.61c3.18,5.19,10.72,5.51,14.54,0.83c3.22-3.94,3.29-10.8,0.12-14.81
		c-1.45-1.95-3.67-3.17-6.09-3.35C385.7,248.6,381.33,252.97,380.86,259.84z"/>
	<path class="st1" d="M710.25,56.65l-11.83-26.52l-0.75,0.14c-1.45,8.01-2.89,16.01-4.38,24.25h-6.66
		c2.93-14.98,5.8-29.77,8.71-44.6l0.71-0.2l14.29,32.14c5.13-11.12,9.91-21.49,14.69-31.86l0.84,0.1c2.6,14.74,5.2,29.48,7.84,44.46
		h-6.57c-1.32-8.05-2.66-16.24-4.01-24.4l-0.61-0.22C718.56,38.54,714.6,47.14,710.25,56.65z"/>
	<path class="st1" d="M254.68,261.78l7.73-1.62c0.29,1.16,0.5,2.1,0.77,3.04c1.26,4.45,4.04,6.63,8.46,6.69
		c4,0.05,7.31-2.19,8.46-5.75c1.34-4.14-0.07-8.03-4-10.44c-1.82-1.12-3.84-1.93-5.77-2.84c-2.05-0.98-4.19-1.79-6.13-2.94
		c-5.61-3.31-8.15-8.36-7.17-13.85c1.01-5.67,5.71-10.18,11.75-11.47c7.38-1.59,15.02,1.59,18.2,8.55
		c-0.99,0.65-1.99,1.35-3.04,1.98c-0.96,0.58-1.96,1.09-3.05,1.7c-0.77-0.97-1.42-1.91-2.19-2.71c-2.96-3.07-8.67-3.09-11.68-0.11
		c-2.62,2.6-2.52,6.26,0.46,8.55c1.47,1.14,3.27,1.86,4.97,2.68c2.95,1.44,6.07,2.57,8.85,4.25c6.19,3.75,8.59,9.94,6.96,16.94
		c-1.63,7.01-7.28,12.14-14.16,12.87C263.46,278.43,256.41,272.95,254.68,261.78z"/>
	<path class="st1" d="M226.18,243.18l-13.43,14.13l15.2,19.01h-10l-11.01-13.89c-1.86,2.42-0.99,4.75-1.13,6.89
		c-0.15,2.25-0.03,4.5-0.03,7h-7.62v-57.99h7.55v34.79l9.34-9.94C219.6,242.9,222.84,242.71,226.18,243.18z"/>
	<path class="st1" d="M135.74,277.43c-10.02-0.07-17.66-7.82-17.66-17.9c0-9.77,8.12-17.67,18.08-17.56
		c10.03,0.1,17.89,7.93,17.87,17.8C154.02,269.83,146.09,277.5,135.74,277.43z M145.98,259.78c0-6.63-3.87-10.74-10.02-10.71
		c-5.92,0.03-9.82,4.21-9.85,10.54c-0.02,6.65,3.8,10.88,9.87,10.91C142.11,270.54,145.99,266.38,145.98,259.78z"/>
	<path class="st1" d="M312.73,277.43c-10.02-0.07-17.66-7.81-17.66-17.9c0-9.77,8.12-17.67,18.07-17.57
		c10.03,0.1,17.89,7.93,17.88,17.78C331.01,269.83,323.08,277.5,312.73,277.43z M322.96,259.8c0-6.64-3.84-10.76-10-10.73
		c-5.93,0.03-9.84,4.2-9.87,10.51c-0.03,6.66,3.78,10.89,9.84,10.93C319.07,270.55,322.96,266.4,322.96,259.8z"/>
	<path class="st1" d="M346.74,276.43h-7.26v-58.2h7.26V276.43z"/>
	<path class="st1" d="M189.08,265.43v9.39c-7.73,4.52-17.58,3.09-23.26-3.27c-5.41-6.07-5.84-15.5-1.11-22.06
		c5.16-7.16,15.39-9.75,24.27-5.08v10.03c-3.24-3.91-6.91-6.39-11.63-5.09c-2.16,0.63-4.1,1.84-5.61,3.5
		c-3.59,4.05-3.09,11.15,0.66,14.91C176.64,271.99,182.1,271.32,189.08,265.43z"/>
	<path class="st1" d="M671.83,54.07h-6.3V17.46h-9.7v-6.03h25.52v5.82h-9.51V54.07z"/>
	<path class="st1" d="M356.88,276.34v-33.19h7.43v33.17L356.88,276.34z"/>
	<path class="st1" d="M360.69,224c2.66,0,4.81,2.16,4.81,4.82c0,0.11,0,0.22-0.01,0.33c-0.15,2.62-2.26,4.69-4.88,4.79
		c-2.65,0.03-5.05-2.39-5.03-5.07c0.01-2.7,2.21-4.89,4.91-4.88C360.56,223.99,360.63,224,360.69,224z"/>
	<path class="st1" d="M19.44,277.4c-2.58,0.09-4.75-1.93-4.84-4.5c0-0.05,0-0.1,0-0.15c-0.05-2.63,2.03-4.8,4.66-4.85
		c2.63-0.05,4.8,2.03,4.85,4.66C24.16,275.18,22.07,277.35,19.44,277.4C19.44,277.4,19.44,277.4,19.44,277.4L19.44,277.4z"/>
	<path class="st1" d="M41.36,277.4c-2.58,0.03-4.7-2.03-4.73-4.61c0-0.05,0-0.1,0-0.15c0-2.63,2.13-4.76,4.76-4.76
		c2.63,0,4.76,2.13,4.76,4.76c0,2.63-2.13,4.76-4.76,4.76c-0.01,0-0.01,0-0.02,0H41.36z"/>
	<path class="st1" d="M62.54,277.4c-2.58-0.02-4.66-2.13-4.64-4.71c0-0.04,0-0.08,0-0.12c0.17-2.63,2.43-4.62,5.06-4.45
		c2.46,0.16,4.39,2.16,4.46,4.62c-0.01,2.59-2.12,4.68-4.71,4.67C62.64,277.4,62.59,277.4,62.54,277.4z"/>
	<path class="st1" d="M455.06,203.54h-17.18V89.34c0.49-0.13,0.99-0.22,1.5-0.26c10.37,0.19,20.74,0.15,31.09,0.68
		c12.89,0.66,22.75,6.63,28.26,18.52c4.48,9.67,4.35,19.7,0.16,29.44c-3.97,9.22-11.55,14.69-20.95,17.19
		c-5.41,1.45-11.21,1.62-16.84,2.25c-1.85,0.2-3.75,0.03-6.02,0.03L455.06,203.54z M455.12,141.14c6.89,0.08,13.32,0.15,19.48-2.15
		c7.16-2.68,10.34-8.2,10.52-15.55c0.17-6.83-2.27-12.41-8.8-15.46c-6.72-3.13-13.86-3.09-21.19-2.92V141.14z"/>
	<path class="st1" d="M578.84,160.47c-0.04-24.46,19.98-44.2,44.9-44.26c24.57-0.17,44.62,19.61,44.78,44.18c0,0.07,0,0.13,0,0.2
		c0.09,24.96-19.89,44.46-45.34,44.63C602.97,205.37,578.44,188.99,578.84,160.47z M624.18,128.41c-17.83-0.26-32,13.51-32.28,31.67
		c-0.3,19.51,15.08,32.68,31.14,32.94c17.9,0.28,32.12-13.72,32.48-31.98C655.86,143.13,641.97,128.66,624.18,128.41z"/>
	<path class="st1" d="M529.24,168.99v34.41h-12.76v-85.35c0.96-0.14,1.93-0.23,2.91-0.26c8.33,0.15,16.69-0.53,24.96,1.25
		c12.23,2.64,19.29,10.48,19.95,22.84c0.67,12.69-7.49,22.23-17.31,24.65c-0.35,0.09-0.65,0.35-1.41,0.77l26.21,36.14h-15.81
		c-2.6-3.72-5.28-7.55-7.96-11.38c-4.92-7.05-9.85-14.1-14.77-21.16C532.4,169.75,531.81,168.04,529.24,168.99z M529.46,157.13
		c5.77,0.24,11.26,0.17,16.3-2.68c4.92-2.79,6.1-7.37,5.82-12.62c-0.26-4.76-2.59-8.15-6.91-9.99c-4.86-2.06-9.97-2.18-15.21-1.66
		V157.13z"/>
</g>
</svg>
